<svg fill="none" xmlns="http://www.w3.org/2000/svg" viewBox="0 0 512 512"><path d="M268.885 28.587a9886.443 9886.443 0 0125.046 44.266 3.833 3.833 0 003.349 1.942h118.443c3.712 0 6.869 2.346 9.514 6.976l31.019 54.826c4.053 7.19 5.12 10.198.512 17.856a1129.453 1129.453 0 00-16.213 27.734l-7.83 14.037c-2.261 4.181-4.757 5.973-.853 10.923l56.576 98.922c3.669 6.422 2.368 10.539-.917 16.427a2813.646 2813.646 0 01-28.48 49.92c-3.392 5.803-7.51 8-14.507 7.893a916.763 916.763 0 00-49.643.342 2.12 2.12 0 00-1.728 1.066 12257.343 12257.343 0 01-57.706 101.12c-3.606 6.251-8.107 7.744-15.467 7.766-21.269.064-42.709.085-64.363.042a11.45 11.45 0 01-9.92-5.781l-28.48-49.557a1.919 1.919 0 00-1.77-1.046H106.283c-6.08.64-11.798-.021-17.174-1.962l-34.197-59.094a11.58 11.58 0 01-.043-11.52l25.75-45.226a4.225 4.225 0 000-4.203 11754.482 11754.482 0 01-40-69.803l-16.854-29.76c-3.413-6.613-3.69-10.581 2.027-20.586 9.92-17.344 19.776-34.667 29.59-51.968 2.815-4.992 6.485-7.126 12.458-7.147 18.41-.078 36.821-.085 55.232-.021a2.651 2.651 0 002.283-1.344L185.216 27.2a10.412 10.412 0 019.003-5.248c11.178-.021 22.464 0 33.77-.128l21.696-.49c7.275-.065 15.446.682 19.2 7.253zm-73.216 8.597a1.281 1.281 0 00-1.109.64l-61.141 106.987a3.347 3.347 0 01-2.88 1.664H69.397c-1.194 0-1.493.533-.874 1.578l123.946 216.662c.534.896.278 1.322-.725 1.344l-59.627.32a4.647 4.647 0 00-4.266 2.474l-28.16 49.28c-.939 1.664-.448 2.518 1.45 2.518l121.942.17c.981 0 1.706.427 2.218 1.302l29.931 52.352c.981 1.728 1.963 1.749 2.965 0l106.795-186.88 16.704-29.483a1.169 1.169 0 011.024-.601 1.17 1.17 0 011.024.601l30.379 53.973a2.599 2.599 0 002.282 1.323l58.944-.427a.846.846 0 00.858-.853.877.877 0 00-.111-.427L414.229 203.2a2.31 2.31 0 010-2.411l6.251-10.816 23.893-42.176c.512-.874.256-1.322-.746-1.322h-247.36c-1.259 0-1.558-.555-.918-1.643l30.592-53.44a2.276 2.276 0 000-2.432L196.8 37.845a1.276 1.276 0 00-1.131-.661zm134.187 171.093c.981 0 1.237.427.725 1.28l-17.749 31.254-55.744 97.813a1.199 1.199 0 01-1.067.619 1.242 1.242 0 01-1.066-.619l-73.664-128.683c-.427-.725-.214-1.109.597-1.152l4.608-.256 143.403-.256h-.043z" fill="url(#prefix__paint0_linear_9_19)"/><defs><linearGradient id="prefix__paint0_linear_9_19" x1="21.323" y1="21.33" x2="46955.3" y2="21.33" gradientUnits="userSpaceOnUse"><stop stop-color="#6336E7" stop-opacity=".84"/><stop offset="1" stop-color="#6F69F7" stop-opacity=".84"/></linearGradient></defs></svg>